<?xml version="1.0" encoding="UTF-8"?>
<svg id="Layer_1" data-name="Layer 1" xmlns="http://www.w3.org/2000/svg" viewBox="0 0 128 152.47">
  <defs>
    <style>
      .cls-1 {
        fill: #79986b;
      }
    </style>
  </defs>
  <path class="cls-1" d="M112.25,85.17c-17.76-2.83-32.74-7.72-50.77-17.46,0,0,9.3-.14,9.3-.14-17.6,10.47-32.47,15.87-50.19,19.02,11.31-13.99,23.17-24.29,40.61-35.04,0,0-4.56,8.19-4.56,8.19-.28-20.48,2.36-36.33,8.56-53.24,6.72,16.7,9.83,32.46,10.19,52.95,0,0,.05,5.47,.05,5.47-19.12,11.42-35.61,18.03-54.84,21.67,12.15-15.37,26.05-26.52,45.31-37.73,19.44,10.83,33.56,21.53,46.35,36.32h0Z"/>
  <path class="cls-1" d="M71.99,133.12l-7.62,7.19c-1.72-23.1,2.11-63.01,2.11-63.01,8.11,23.35,11.3,43.61,13.82,69-8.58,1.8-16.89,1.8-26.22,0,1.54-25.34,5.15-45.56,12.4-69,4.26,21.79,3.61,39.92,2.74,63.01l-8.31-7.19c3.35-.02,7.73-.02,11.08,0"/>
</svg>