<?xml version="1.0" encoding="UTF-8"?>
<svg id="Layer_1" data-name="Layer 1" xmlns="http://www.w3.org/2000/svg" viewBox="0 0 209.62 128">
  <defs>
    <style>
      .cls-1 {
        fill: #79986b;
      }
    </style>
  </defs>
  <path class="cls-1" d="M141.87,17.66c20.25,9.3,37.67,23.82,53.41,39.27,0,0,7.08,7.06,7.08,7.06-17.76,18.11-37.13,35.71-60.49,46.36,9.26-20.27,23.79-37.7,39.27-53.41,0,0,0,14.14,0,14.14-15.45-15.74-29.97-33.16-39.27-53.41h0Z"/>
  <path class="cls-1" d="M67.74,110.34c-20.25-9.3-37.67-23.82-53.41-39.27,0,0-7.08-7.06-7.08-7.06C25.01,45.9,44.39,28.31,67.74,17.66c-9.26,20.27-23.79,37.7-39.27,53.41,0,0,0-14.14,0-14.14,15.45,15.74,29.97,33.16,39.27,53.41h0Z"/>
  <path class="cls-1" d="M78.46,121.78c2.84-40.49,23.86-86.9,52.7-115.57-2.72,40.53-24,86.9-52.7,115.57h0Z"/>
</svg>